<?xml version="1.0" encoding="UTF-8"?>
<svg width="700pt" height="700pt" version="1.1" viewBox="0 0 700 700" xmlns="http://www.w3.org/2000/svg" xmlns:xlink="http://www.w3.org/1999/xlink">
 <defs>
  <symbol id="y" overflow="visible">
   <path d="m2.6875-0.15625c-0.14844 0.074219-0.29297 0.125-0.4375 0.15625-0.14844 0.039062-0.30469 0.0625-0.46875 0.0625-0.49219 0-0.875-0.13281-1.1562-0.40625-0.28125-0.28125-0.42188-0.64844-0.42188-1.1094 0-0.46875 0.14062-0.83594 0.42188-1.1094 0.28125-0.26953 0.66406-0.40625 1.1562-0.40625 0.16406 0 0.32031 0.023438 0.46875 0.0625 0.14453 0.03125 0.28906 0.085938 0.4375 0.15625v0.59375c-0.14844-0.09375-0.28906-0.16016-0.42188-0.20312-0.13672-0.039063-0.27734-0.0625-0.42188-0.0625-0.27344 0-0.48438 0.089844-0.64062 0.26562-0.14844 0.16797-0.21875 0.40234-0.21875 0.70312 0 0.30469 0.070313 0.54297 0.21875 0.71875 0.15625 0.16797 0.36719 0.25 0.64062 0.25 0.14453 0 0.28516-0.019531 0.42188-0.0625 0.13281-0.050781 0.27344-0.125 0.42188-0.21875z"/>
  </symbol>
  <symbol id="c" overflow="visible">
   <path d="m1.9688-1.5938c-0.0625-0.03125-0.125-0.050781-0.1875-0.0625-0.0625-0.007812-0.125-0.015625-0.1875-0.015625-0.17969 0-0.32031 0.058594-0.42188 0.17188-0.09375 0.11719-0.14062 0.27734-0.14062 0.48438v1.0156h-0.6875v-2.1875h0.6875v0.35938c0.09375-0.14453 0.19531-0.25 0.3125-0.3125 0.11328-0.0625 0.25391-0.09375 0.42188-0.09375h0.0625c0.03125 0 0.070313 0.007813 0.125 0.015625z"/>
  </symbol>
  <symbol id="a" overflow="visible">
   <path d="m2.5156-1.0938v0.1875h-1.625c0.007813 0.16797 0.066406 0.29297 0.17188 0.375 0.10156 0.085938 0.24219 0.125 0.42188 0.125 0.14453 0 0.29688-0.019531 0.45312-0.0625 0.15625-0.050781 0.31641-0.11719 0.48438-0.20312v0.53125c-0.16797 0.0625-0.33594 0.10938-0.5 0.14062-0.16797 0.039062-0.33594 0.0625-0.5 0.0625-0.39844 0-0.70312-0.097656-0.92188-0.29688-0.21875-0.20703-0.32812-0.49219-0.32812-0.85938 0-0.35156 0.10156-0.62891 0.3125-0.82812 0.21875-0.20703 0.51953-0.3125 0.90625-0.3125 0.34375 0 0.61328 0.10547 0.8125 0.3125 0.20703 0.19922 0.3125 0.47656 0.3125 0.82812zm-0.71875-0.23438c0-0.13281-0.042969-0.24219-0.125-0.32812-0.074219-0.082031-0.17188-0.125-0.29688-0.125-0.13672 0-0.24609 0.042969-0.32812 0.125-0.085937 0.074219-0.13672 0.18359-0.15625 0.32812z"/>
  </symbol>
  <symbol id="i" overflow="visible">
   <path d="m1.3125-0.98438c-0.14844 0-0.25781 0.027344-0.32812 0.078125-0.074219 0.042969-0.10938 0.11719-0.10938 0.21875 0 0.085938 0.03125 0.15234 0.09375 0.20312 0.0625 0.054687 0.14453 0.078125 0.25 0.078125 0.125 0 0.23438-0.046875 0.32812-0.14062s0.14062-0.21094 0.14062-0.35938v-0.078125zm1.0781-0.26562v1.25h-0.70312v-0.32812c-0.09375 0.13672-0.20312 0.23438-0.32812 0.29688-0.11719 0.0625-0.25781 0.09375-0.42188 0.09375-0.23047 0-0.41797-0.066406-0.5625-0.20312-0.13672-0.13281-0.20312-0.30469-0.20312-0.51562 0-0.25781 0.085937-0.44531 0.26562-0.5625 0.17578-0.125 0.45312-0.1875 0.82812-0.1875h0.42188v-0.046875c0-0.11328-0.046875-0.19531-0.14062-0.25-0.085937-0.050781-0.21875-0.078125-0.40625-0.078125-0.14844 0-0.28906 0.015625-0.42188 0.046875-0.125 0.03125-0.24609 0.078125-0.35938 0.14062v-0.53125c0.15625-0.039062 0.30469-0.066406 0.45312-0.078125 0.15625-0.019531 0.30469-0.03125 0.45312-0.03125 0.39453 0 0.67969 0.078125 0.85938 0.23438 0.17578 0.14844 0.26562 0.39844 0.26562 0.75z"/>
  </symbol>
  <symbol id="b" overflow="visible">
   <path d="m1.0938-2.8125v0.625h0.73438v0.5h-0.73438v0.92188c0 0.10547 0.019531 0.17969 0.0625 0.21875 0.039062 0.03125 0.125 0.046875 0.25 0.046875h0.35938v0.5h-0.60938c-0.27344 0-0.46484-0.054688-0.57812-0.17188-0.11719-0.11328-0.17188-0.3125-0.17188-0.59375v-0.92188h-0.35938v-0.5h0.35938v-0.625z"/>
  </symbol>
  <symbol id="h" overflow="visible">
   <path d="m1.8281-1.875v-1.1719h0.70312v3.0469h-0.70312v-0.3125c-0.09375 0.125-0.20312 0.21875-0.32812 0.28125-0.11719 0.0625-0.24609 0.09375-0.39062 0.09375-0.27344 0-0.49609-0.10938-0.67188-0.32812-0.16797-0.21875-0.25-0.49219-0.25-0.82812 0-0.33203 0.082031-0.60156 0.25-0.8125 0.17578-0.21875 0.39844-0.32812 0.67188-0.32812 0.14453 0 0.27344 0.03125 0.39062 0.09375 0.125 0.054687 0.23438 0.14062 0.32812 0.26562zm-0.46875 1.4219c0.15625 0 0.26953-0.050781 0.34375-0.15625 0.082031-0.11328 0.125-0.27344 0.125-0.48438 0-0.20703-0.042969-0.36328-0.125-0.46875-0.074219-0.11328-0.1875-0.17188-0.34375-0.17188-0.14844 0-0.26172 0.058594-0.34375 0.17188-0.074219 0.10547-0.10938 0.26172-0.10938 0.46875 0 0.21094 0.035156 0.37109 0.10938 0.48438 0.082031 0.10547 0.19531 0.15625 0.34375 0.15625z"/>
  </symbol>
  <symbol id="g" overflow="visible">
   <path d="m1.5-0.45312c0.14453 0 0.25781-0.050781 0.34375-0.15625 0.082031-0.11328 0.125-0.27344 0.125-0.48438 0-0.20703-0.042969-0.36328-0.125-0.46875-0.085938-0.11328-0.19922-0.17188-0.34375-0.17188-0.14844 0-0.26172 0.058594-0.34375 0.17188-0.085938 0.10547-0.125 0.26172-0.125 0.46875 0 0.21094 0.039062 0.37109 0.125 0.48438 0.082031 0.10547 0.19531 0.15625 0.34375 0.15625zm-0.46875-1.4219c0.10156-0.125 0.21094-0.21094 0.32812-0.26562 0.11328-0.0625 0.25-0.09375 0.40625-0.09375 0.26953 0 0.48828 0.10938 0.65625 0.32812 0.17578 0.21094 0.26562 0.48047 0.26562 0.8125 0 0.33594-0.089844 0.60938-0.26562 0.82812-0.16797 0.21875-0.38672 0.32812-0.65625 0.32812-0.15625 0-0.29297-0.03125-0.40625-0.09375-0.11719-0.0625-0.22656-0.15625-0.32812-0.28125v0.3125h-0.6875v-3.0469h0.6875z"/>
  </symbol>
  <symbol id="f" overflow="visible">
   <path d="m0.046875-2.1875h0.70312l0.59375 1.4844 0.5-1.4844h0.6875l-0.92188 2.3906c-0.085937 0.25-0.1875 0.42188-0.3125 0.51562s-0.28906 0.14062-0.48438 0.14062h-0.40625v-0.45312h0.21875c0.11328 0 0.19531-0.023438 0.25-0.0625 0.050781-0.03125 0.09375-0.10156 0.125-0.20312l0.03125-0.0625z"/>
  </symbol>
  <symbol id="e" overflow="visible">
   <path d="m0.375-2.9219h0.75v2.6406c0 0.36328-0.10156 0.63281-0.29688 0.8125-0.19922 0.17578-0.5 0.26562-0.90625 0.26562h-0.14062v-0.5625h0.10938c0.15625 0 0.27344-0.046875 0.35938-0.14062 0.082031-0.085938 0.125-0.20703 0.125-0.375z"/>
  </symbol>
  <symbol id="x" overflow="visible">
   <path d="m1.5312-1.7812c0.125 0 0.21094-0.023438 0.26562-0.078125 0.0625-0.050781 0.09375-0.12891 0.09375-0.23438 0-0.10156-0.03125-0.17969-0.09375-0.23438-0.054687-0.050781-0.14062-0.078125-0.26562-0.078125h-0.40625v0.625zm0.03125 1.2656c0.14453 0 0.25391-0.03125 0.32812-0.09375 0.082031-0.0625 0.125-0.15625 0.125-0.28125 0-0.13281-0.039063-0.23438-0.10938-0.29688-0.074219-0.0625-0.1875-0.09375-0.34375-0.09375h-0.4375v0.76562zm0.70312-1.0469c0.15625 0.054688 0.27344 0.14062 0.35938 0.26562 0.09375 0.125 0.14062 0.27734 0.14062 0.45312 0 0.28125-0.09375 0.49609-0.28125 0.64062-0.1875 0.13672-0.48047 0.20312-0.875 0.20312h-1.2344v-2.9219h1.125c0.40625 0 0.69531 0.0625 0.875 0.1875 0.1875 0.125 0.28125 0.32422 0.28125 0.59375 0 0.13672-0.039062 0.25781-0.10938 0.35938-0.0625 0.09375-0.15625 0.16797-0.28125 0.21875z"/>
  </symbol>
  <symbol id="w" overflow="visible">
   <path d="m2.3906-2.8281v0.625c-0.15625-0.070313-0.3125-0.125-0.46875-0.15625-0.14844-0.039063-0.28906-0.0625-0.42188-0.0625-0.17969 0-0.3125 0.027344-0.40625 0.078125-0.085938 0.042969-0.125 0.11719-0.125 0.21875 0 0.085938 0.023438 0.14844 0.078125 0.1875 0.0625 0.042969 0.17188 0.078125 0.32812 0.10938l0.3125 0.0625c0.32031 0.074219 0.55078 0.17969 0.6875 0.3125 0.14453 0.125 0.21875 0.3125 0.21875 0.5625 0 0.3125-0.10156 0.55469-0.29688 0.71875-0.1875 0.15625-0.48047 0.23438-0.875 0.23438-0.17969 0-0.35938-0.023438-0.54688-0.0625-0.1875-0.03125-0.375-0.082031-0.5625-0.15625v-0.625c0.1875 0.09375 0.36328 0.16797 0.53125 0.21875 0.17578 0.054688 0.34766 0.078125 0.51562 0.078125 0.16406 0 0.28906-0.023437 0.375-0.078125 0.082031-0.0625 0.125-0.14453 0.125-0.25 0-0.082031-0.03125-0.14844-0.09375-0.20312-0.054687-0.050781-0.16797-0.097656-0.34375-0.14062l-0.29688-0.0625c-0.29297-0.0625-0.50781-0.16016-0.64062-0.29688-0.13672-0.13281-0.20312-0.31641-0.20312-0.54688 0-0.28906 0.09375-0.51562 0.28125-0.67188s0.45703-0.23438 0.8125-0.23438c0.16406 0 0.33203 0.015625 0.5 0.046875 0.16406 0.023437 0.33594 0.054687 0.51562 0.09375z"/>
  </symbol>
  <symbol id="v" overflow="visible">
   <path d="m0.015625-2.9219h2.6875v0.57812h-0.96875v2.3438h-0.75v-2.3438h-0.96875z"/>
  </symbol>
  <symbol id="u" overflow="visible">
   <path d="m0.125-2.9219h0.71875l0.5 2.125 0.5-2.125h0.71875l0.5 2.125 0.51562-2.125h0.70312l-0.6875 2.9219h-0.85938l-0.53125-2.2188-0.51562 2.2188h-0.875z"/>
  </symbol>
  <symbol id="t" overflow="visible">
   <path d="m0.375-2.9219h0.95312l0.65625 1.5625 0.67188-1.5625h0.95312v2.9219h-0.70312v-2.1406l-0.67188 1.5781h-0.48438l-0.67188-1.5781v2.1406h-0.70312z"/>
  </symbol>
  <symbol id="s" overflow="visible">
   <path d="m1.4375-1.625c0.15625 0 0.26562-0.023438 0.32812-0.078125 0.070313-0.0625 0.10938-0.16016 0.10938-0.29688 0-0.13281-0.039062-0.22656-0.10938-0.28125-0.0625-0.0625-0.17188-0.09375-0.32812-0.09375h-0.3125v0.75zm-0.3125 0.51562v1.1094h-0.75v-2.9219h1.1406c0.38281 0 0.66406 0.070313 0.84375 0.20312 0.17578 0.125 0.26562 0.32812 0.26562 0.60938 0 0.1875-0.046875 0.34375-0.14062 0.46875s-0.23438 0.21875-0.42188 0.28125c0.10156 0.023437 0.19531 0.074219 0.28125 0.15625 0.082031 0.085937 0.16406 0.21094 0.25 0.375l0.40625 0.82812h-0.79688l-0.35938-0.71875c-0.074219-0.14453-0.14844-0.24219-0.21875-0.29688-0.074219-0.0625-0.17188-0.09375-0.29688-0.09375z"/>
  </symbol>
  <symbol id="r" overflow="visible">
   <path d="m1.7812-3.0469v0.46875h-0.39062c-0.10547 0-0.17969 0.023437-0.21875 0.0625-0.03125 0.03125-0.046875 0.089844-0.046875 0.17188v0.15625h0.59375v0.5h-0.59375v1.6875h-0.70312v-1.6875h-0.34375v-0.5h0.34375v-0.15625c0-0.23828 0.066406-0.41406 0.20312-0.53125 0.13281-0.11328 0.33594-0.17188 0.60938-0.17188z"/>
  </symbol>
  <symbol id="d" overflow="visible">
   <path d="m1.375-1.7344c-0.15625 0-0.27734 0.058594-0.35938 0.17188-0.074219 0.10547-0.10938 0.26172-0.10938 0.46875 0 0.21094 0.035156 0.37109 0.10938 0.48438 0.082031 0.11719 0.20312 0.17188 0.35938 0.17188s0.26953-0.054688 0.34375-0.17188c0.082031-0.11328 0.125-0.27344 0.125-0.48438 0-0.20703-0.042969-0.36328-0.125-0.46875-0.074219-0.11328-0.1875-0.17188-0.34375-0.17188zm0-0.5c0.375 0 0.66406 0.10547 0.875 0.3125 0.21875 0.19922 0.32812 0.47656 0.32812 0.82812 0 0.36719-0.10938 0.65234-0.32812 0.85938-0.21094 0.19922-0.5 0.29688-0.875 0.29688s-0.67188-0.097656-0.89062-0.29688c-0.21094-0.20703-0.3125-0.49219-0.3125-0.85938 0-0.35156 0.10156-0.62891 0.3125-0.82812 0.21875-0.20703 0.51562-0.3125 0.89062-0.3125z"/>
  </symbol>
  <symbol id="q" overflow="visible">
   <path d="m2.3594-1.8281c0.09375-0.13281 0.19531-0.23438 0.3125-0.29688 0.125-0.070312 0.25781-0.10938 0.40625-0.10938 0.25 0 0.44141 0.078125 0.57812 0.23438 0.13281 0.14844 0.20312 0.37109 0.20312 0.67188v1.3281h-0.70312v-1.1406-0.046875-0.078125c0-0.15625-0.027344-0.26953-0.078125-0.34375-0.042969-0.070313-0.11719-0.10938-0.21875-0.10938-0.125 0-0.22656 0.058594-0.29688 0.17188-0.074219 0.10547-0.11719 0.26172-0.125 0.46875v1.0781h-0.70312v-1.1406c0-0.23828-0.023437-0.39453-0.0625-0.46875-0.042969-0.070313-0.11719-0.10938-0.21875-0.10938-0.13672 0-0.24219 0.058594-0.3125 0.17188-0.074219 0.10547-0.10938 0.26172-0.10938 0.46875v1.0781h-0.70312v-2.1875h0.70312v0.3125c0.09375-0.11328 0.19141-0.20312 0.29688-0.26562 0.11328-0.0625 0.23828-0.09375 0.375-0.09375 0.14453 0 0.27344 0.039063 0.39062 0.10938 0.125 0.074219 0.21094 0.17188 0.26562 0.29688z"/>
  </symbol>
  <symbol id="p" overflow="visible">
   <path d="m2.5312-1.3281v1.3281h-0.70312v-1.0156c0-0.1875-0.007813-0.31641-0.015625-0.39062 0-0.070312-0.011719-0.125-0.03125-0.15625-0.03125-0.050781-0.074219-0.085938-0.125-0.10938-0.042969-0.03125-0.09375-0.046875-0.15625-0.046875-0.14844 0-0.26172 0.058594-0.34375 0.17188-0.085938 0.11719-0.125 0.27344-0.125 0.46875v1.0781h-0.6875v-3.0469h0.6875v1.1719c0.10156-0.125 0.21094-0.21094 0.32812-0.26562 0.125-0.0625 0.25781-0.09375 0.40625-0.09375 0.25 0 0.4375 0.078125 0.5625 0.23438 0.13281 0.14844 0.20312 0.37109 0.20312 0.67188z"/>
  </symbol>
  <symbol id="o" overflow="visible">
   <path d="m0.375-2.9219h0.82812l1.0625 2v-2h0.71875v2.9219h-0.84375l-1.0625-2v2h-0.70312z"/>
  </symbol>
  <symbol id="n" overflow="visible">
   <path d="m0.3125-0.85938v-1.3281h0.70312v0.21875 0.45312 0.34375c0 0.17969 0.003906 0.30859 0.015625 0.39062 0.007812 0.074219 0.023438 0.13281 0.046875 0.17188 0.019531 0.042969 0.050781 0.078125 0.09375 0.10938 0.050781 0.023438 0.10938 0.03125 0.17188 0.03125 0.14453 0 0.25781-0.054688 0.34375-0.17188 0.082031-0.11328 0.125-0.26953 0.125-0.46875v-1.0781h0.70312v2.1875h-0.70312v-0.3125c-0.10547 0.125-0.21875 0.21875-0.34375 0.28125-0.11719 0.0625-0.24219 0.09375-0.375 0.09375-0.26172 0-0.46094-0.078125-0.59375-0.23438-0.125-0.15625-0.1875-0.38281-0.1875-0.6875z"/>
  </symbol>
  <symbol id="m" overflow="visible">
   <path d="m2.5312-1.3281v1.3281h-0.70312v-1.0156c0-0.1875-0.007813-0.31641-0.015625-0.39062 0-0.070312-0.011719-0.125-0.03125-0.15625-0.03125-0.050781-0.074219-0.085938-0.125-0.10938-0.042969-0.03125-0.09375-0.046875-0.15625-0.046875-0.14844 0-0.26172 0.058594-0.34375 0.17188-0.085938 0.11719-0.125 0.27344-0.125 0.46875v1.0781h-0.6875v-2.1875h0.6875v0.3125c0.10156-0.125 0.21094-0.21094 0.32812-0.26562 0.125-0.0625 0.25781-0.09375 0.40625-0.09375 0.25 0 0.4375 0.078125 0.5625 0.23438 0.13281 0.14844 0.20312 0.37109 0.20312 0.67188z"/>
  </symbol>
  <symbol id="l" overflow="visible">
   <path d="m0.375-2.9219h1.2344c0.375 0 0.66016 0.085937 0.85938 0.25 0.19531 0.16797 0.29688 0.40234 0.29688 0.70312 0 0.3125-0.10156 0.55469-0.29688 0.71875-0.19922 0.15625-0.48438 0.23438-0.85938 0.23438h-0.48438v1.0156h-0.75zm0.75 0.54688v0.8125h0.40625c0.14453 0 0.25781-0.03125 0.34375-0.09375 0.082031-0.070312 0.125-0.17578 0.125-0.3125 0-0.125-0.042969-0.22266-0.125-0.29688-0.085938-0.070313-0.19922-0.10938-0.34375-0.10938z"/>
  </symbol>
  <symbol id="k" overflow="visible">
   <path d="m0.34375-2.1875h0.6875v2.1406c0 0.30078-0.074219 0.52344-0.21875 0.67188-0.13672 0.15625-0.33594 0.23438-0.59375 0.23438h-0.35938v-0.45312h0.125c0.13281 0 0.22656-0.03125 0.28125-0.09375 0.050781-0.0625 0.078125-0.18359 0.078125-0.35938zm0-0.85938h0.6875v0.57812h-0.6875z"/>
  </symbol>
  <symbol id="j" overflow="visible">
   <path d="m2.1094-2.125v0.57812c-0.09375-0.0625-0.19531-0.10938-0.29688-0.14062-0.09375-0.03125-0.19531-0.046875-0.29688-0.046875-0.1875 0-0.33984 0.058594-0.45312 0.17188-0.10547 0.10547-0.15625 0.26172-0.15625 0.46875 0 0.21094 0.050781 0.37109 0.15625 0.48438 0.11328 0.11719 0.26562 0.17188 0.45312 0.17188 0.11328 0 0.21875-0.015625 0.3125-0.046875 0.10156-0.039063 0.19531-0.09375 0.28125-0.15625v0.57812c-0.11719 0.042969-0.23047 0.070312-0.34375 0.09375-0.10547 0.019531-0.21484 0.03125-0.32812 0.03125-0.39844 0-0.71094-0.097656-0.9375-0.29688-0.21875-0.20703-0.32812-0.49219-0.32812-0.85938 0-0.36328 0.10938-0.64453 0.32812-0.84375 0.22656-0.19531 0.53906-0.29688 0.9375-0.29688 0.11328 0 0.22266 0.011719 0.32812 0.03125 0.11328 0.011719 0.22656 0.039063 0.34375 0.078125z"/>
  </symbol>
 </defs>
 <g>
  <path d="m264.4 122.88c-13.52 1.1211-32.879 5.1211-38.48 7.9219-2 1.0391-5.6797 3.6016-8.1602 5.7617-9.4414 8.0781-13.922 14.879-35.762 53.281l-21.039 36.961-10.078 10.238c-5.5195 5.6797-12.078 11.68-14.48 13.359-5.4414 3.7617-12.078 10.719-14.238 14.879-0.87891 1.6797-2.4805 6-3.6016 9.5195l-2 6.3984 1.1211 26c2.4805 59.359 4.3984 90 5.6016 91.121 0.32031 0.23828 0.32031-26.16 0.078125-58.719l-0.55859-59.199 2.3203-6.1602c2.8789-7.6797 6.8008-13.039 12.16-16.641 2.3203-1.5195 9.7617-8.1602 16.48-14.801l12.32-12 20.879-36.801c24.641-43.52 30.32-51.359 41.039-57.602 3.3594-1.9219 19.68-6.0781 30-7.6016 4.0781-0.64062 32.559-0.87891 90.801-0.87891 82 0 85.121 0.078125 94.398 1.6797 11.441 1.9219 21.281 4.4805 25.281 6.4805 4.1602 2.0781 11.039 8.6406 16.16 15.359 2.3984 3.1211 13.84 22.32 25.281 42.559l20.961 36.801 10.559 10.641c5.8398 5.8398 13.281 12.559 16.641 14.961 7.5195 5.2812 11.359 10.398 14.16 18.961l2.2383 6.6406-0.55859 24.398c-0.80078 33.52-0.80078 92.719 0 90.801 1.1211-2.7188 3.0391-34.398 5.2812-88l1.1211-28-2.3203-7.4414c-3.4414-10.961-8.9609-18.16-18.398-24-1.5195-0.87891-7.3594-6.3203-12.961-11.922l-10.16-10.238-21.199-37.199c-22.398-39.359-27.68-47.121-36.879-54.641-6.3984-5.1211-9.5195-6.4805-20.398-8.8789-11.281-2.4805-19.121-3.6016-27.602-3.8398-7.1992-0.16016-53.121 1.4414-70.559 2.4805-6.5586 0.39844-16.32 0.39844-22.801 0-6.3203-0.32031-22.961-1.0391-37.039-1.5195-14.078-0.48047-27.039-0.96094-28.801-1.1211s-4.8008-0.16016-6.8008 0z"/>
  <path d="m262.96 136c-10.078 0.71875-27.762 2.8008-30.719 3.6797-1.9219 0.55859-12.398 14.641-18.32 24.559-7.9219 13.359-18.961 37.441-21.199 46.48l-0.55859 2.3203 10.719-0.48047c40-2 98-3.7617 123.92-3.7617 19.441 0 23.68-1.1211 7.5195-2-23.441-1.2812-84.801 0.48047-127.52 3.6016-5.9219 0.39844-11.199 0.80078-11.762 0.80078-1.6016 0 6.8789-19.68 13.922-32.398 8.4805-15.199 22.641-34.238 26.078-35.039 10.238-2.4805 27.922-3.6797 67.762-4.7188 45.68-1.1992 45.602-1.1992 90.801 0 37.039 0.96094 49.121 1.6797 62.398 3.7617 8 1.2812 6.7188 0.23828 15.922 12 6.9609 8.7188 13.762 19.68 19.84 32.078 5.4414 10.961 10.719 23.359 10.078 23.922-0.16016 0.23828-5.1992 0-11.121-0.39844-29.922-2.1602-56.16-3.3594-85.121-3.7617-31.359-0.48047-55.359 0.16016-53.121 1.3594 0.64062 0.32031 16.961 0.80078 36.32 1.1211 35.199 0.55859 58.879 1.2812 95.441 2.9609 10.719 0.48047 19.68 0.64062 19.922 0.39844 0.48047-0.39844-2.8008-9.6016-6.7188-19.281-3.0391-7.1992-10.879-22.641-15.121-29.762-5.1211-8.4805-16.238-23.281-17.84-23.762-0.71875-0.23828-5.1992-0.96094-10.078-1.6016-17.199-2.3984-35.602-2.9609-69.602-2.3203-38.078 0.71875-32 0.71875-76.398 0.078126-19.121-0.23828-39.602-0.16016-45.441 0.16016z"/>
  <path d="m180.48 219.76c-0.16016 7.5195 4.7188 16.32 15.441 28.238 8.6406 9.6016 22.48 22.238 23.359 21.359 0.23828-0.23828-2.5586-3.7617-6.2383-7.7617-25.762-28.48-28.559-32.16-31.121-41.039l-1.4414-4.9609z"/>
  <path d="m514.16 222.4c-1.6016 6.9609-7.0391 14.48-22.879 32-8.1602 8.9609-14.879 16.641-14.879 17.039 0 1.5195 5.7617-3.5195 16.398-14.16 16.879-16.879 23.121-26.641 22.641-35.039l-0.23828-4.2383-1.0391 4.3984z"/>
  <path d="m138.88 263.76c-6.3984 6.2383-9.0391 17.039-7.2812 29.359 0.87891 6.3984 1.1992 7.1992 4.3984 10.719 3.7617 4.1602 6.8789 5.9219 19.039 10.719 7.4414 2.9609 10.398 3.6016 34.16 7.1211 14.32 2.0781 27.602 3.8398 29.602 3.8398 4 0.078125 7.1992-1.6016 7.1992-3.8398 0-0.80078-3.2812-6.2383-7.2812-12.078-5.1992-7.5195-7.9219-12.48-9.2812-16.641-1.1211-3.1992-2.1602-5.6797-2.3984-5.4414-0.16016 0.16016 0.39844 3.0391 1.3594 6.3984 1.2812 4.4805 3.3594 8.8008 8.3984 16.641 3.6797 5.8398 6.4805 10.879 6.3203 11.199-0.71875 1.1211-4 0.71875-30.719-3.3594-24.801-3.9219-26.48-4.2383-36.398-8.0781-11.441-4.3984-17.121-7.7617-19.281-11.441-2.3203-3.9219-2.5586-16.559-0.39844-23.602 2.1602-7.0391 6-11.281 10.238-11.281 7.9219 0 22.801 4.2383 53.84 15.441 11.84 4.2383 19.039 6.4805 18 5.4414-1.5195-1.3594-36.16-15.52-46.398-18.961-9.1992-3.0391-22.32-5.9219-27.441-5.9219-1.0391 0-3.3594 1.5195-5.6797 3.7617z"/>
  <path d="m542.88 261.28c-3.7617 0.64062-10.961 2.5586-16.078 4.2383-9.5195 3.1992-46.16 18.16-47.602 19.359-1.4414 1.3594 9.8398-2.3203 33.199-10.801 14.559-5.3594 28.32-9.0391 35.84-9.7617 5.0391-0.48047 5.6016-0.39844 7.9219 1.6016 2.8789 2.4805 5.6797 9.0391 6.6406 15.68 0.71875 5.3594-0.39844 15.52-2.0781 18-2 3.1211-6.7188 5.7617-18 10.32-10.641 4.2383-11.281 4.3203-37.199 8.3984-26.719 4.1602-30.32 4.5586-30.961 3.4414-0.23828-0.32031 2.7188-5.4414 6.4805-11.359 5.1211-8.0781 7.1992-12.16 8.2383-16.398 2.0781-7.8398 1.8398-8.2383-0.71875-1.1992-1.4414 3.9219-4.7188 9.6797-9.6016 16.801-4 5.9219-7.3594 11.281-7.3594 11.84 0 0.48047 0.71875 1.6797 1.6016 2.5586 2.2383 2.2383 5.2812 2.0781 35.199-2.3203 25.281-3.7617 26.238-4 36.16-7.8398 13.52-5.3594 18.879-9.4414 20.801-15.84 0.48047-1.7617 0.96094-6.8008 0.96094-11.199 0.078125-10.961-2.0781-17.602-7.6016-23.039-4.3984-4.2383-4.8008-4.3203-15.84-2.4805z"/>
  <path d="m264.48 279.28c-18.559 1.0391-29.441 2.7188-32.879 5.0391-5.4414 3.6016-7.1992 10.238-5.2812 19.602 1.6797 7.8398 3.5195 11.441 9.2812 17.84 10.398 11.52 19.281 15.199 42.398 17.52 26.48 2.7188 60.961 5.6016 63.52 5.3594 3.0391-0.32031-16.641-2.8789-49.68-6.6406-13.52-1.5195-26.398-3.1992-28.641-3.6797-11.359-2.6406-21.281-8.9609-27.84-17.922-4.4805-6-6.2383-11.199-6.3984-18.398-0.16016-6.3203 1.1992-9.1992 5.2812-11.359 5.6797-2.8789 30.801-4.8008 78.078-5.8398 18.641-0.39844 34-0.87891 34.16-1.0391 1.2812-1.2812-61.359-1.6797-82-0.48047z"/>
  <path d="m358.8 279.12-10 0.48047 9.9219 0.55859c5.4414 0.39844 15.922 0.64062 23.199 0.64062 27.52 0 69.52 2.6406 77.84 4.8008 1.6797 0.48047 3.9219 2 5.3594 3.6016 2.2383 2.5586 2.4805 3.4414 2.4805 7.8398 0 5.0391-1.3594 11.602-3.1211 14.801-2 3.6797-8.9609 11.281-13.68 14.801-5.6797 4.3203-16.238 8.0781-25.199 8.9609-7.6016 0.71875-55.762 6.4805-65.199 7.6797-4.1602 0.55859-6.9609 1.1992-6.1602 1.3594 3.2812 0.71875 73.52-5.8398 80.32-7.4414 8.7188-2.0781 13.762-4.3984 19.68-9.1211 10.398-8.2383 15.441-16.719 16.32-27.359 0.64062-7.1211-0.16016-10.641-3.0391-13.922-3.3594-3.7617-7.2812-4.9609-21.52-6.4805-13.359-1.3594-68.32-2.1602-87.199-1.1992z"/>
  <path d="m344.16 287.28c-5.6797 0.87891-10.48 3.5195-14.879 8.3203-4.6406 5.1211-6.4805 9.9219-6.4805 16.961 0 10.078 5.1211 18.32 14.16 22.801 4.6406 2.2383 6.1602 2.6406 11.441 2.5586 7.6016 0 12.719-2.1602 17.84-7.3594 5.3594-5.5195 7.3594-10.32 7.3594-18.16 0-4.8789-0.39844-7.2812-1.7617-10.16-4.8008-10.559-16.238-16.719-27.68-14.961zm12.32 3.6016c4.8789 1.5195 9.4414 5.5195 12.32 10.801 2.0781 3.7617 2.3984 5.1211 2.3984 10.719 0 5.3594-0.39844 7.0391-2.1602 10.398-4.3984 8.3984-11.68 12.801-21.039 12.719-9.3594 0-16.879-4.9609-21.039-13.84-1.6797-3.6797-1.9219-5.0391-1.6016-10.398 0.39844-6.7188 1.6016-9.6797 6-14.559 3.4414-3.8398 7.9219-6.2383 12.961-7.1211 4.1602-0.64062 6.8789-0.32031 12.16 1.2812z"/>
  <path d="m229.68 298.56c0.71875 1.1211 12 2.2383 29.922 3.0391 32.961 1.3594 57.039 1.7617 59.602 0.87891 2-0.64062 2.0781-0.71875 0.64062-0.80078-1.0391-0.078125-7.1211-0.48047-13.602-0.96094-15.441-1.1211-76.961-2.8789-76.559-2.1602z"/>
  <path d="m434 298.88c-17.84 0.55859-37.68 1.3594-44.238 1.8398-6.4805 0.48047-12.559 0.87891-13.602 0.96094-1.4414 0.078124-1.3594 0.16016 0.64062 0.80078 2.5586 0.87891 26.641 0.48047 59.602-0.87891 18.961-0.80078 29.199-1.9219 30.078-3.2812 0.23828-0.39844 0.32031-0.64062 0.16016-0.64062-0.16016 0.078124-14.801 0.64062-32.641 1.1992z"/>
  <path d="m238.4 318.32c0.48047 0.48047 2.8008 1.1992 5.1992 1.6797 10.398 1.7617 77.762 4.0781 78.641 2.6406 0.87891-1.4414-25.039-3.1211-59.039-3.8398-11.84-0.32031-22.48-0.71875-23.602-0.87891-1.4414-0.32031-1.7617-0.16016-1.1992 0.39844z"/>
  <path d="m436.4 318.48c-36.32 1.1211-63.441 2.8789-62.719 4 0.55859 0.96094 14.801 0.87891 39.602-0.078125 27.359-1.1211 40.16-2.1602 43.281-3.5195 1.4414-0.64062 2.0781-1.1211 1.4414-1.1211-0.64062 0.078125-10.398 0.39844-21.602 0.71875z"/>
  <path d="m143.12 349.04c-5.0391 4.2383-9.9219 16.641-9.9219 25.441 0 3.3594 0.39844 4.0781 4.8008 8.8789 2.6406 2.8789 6.6406 6.3984 8.8789 7.9219l4.0781 2.5586 20.559 0.39844c24.48 0.39844 33.281-0.39844 37.762-3.5195 3.4414-2.3203 7.3594-7.2812 13.52-16.559 5.0391-7.8398 3.9219-7.2812-2.0781 0.87891-4.8789 6.6406-9.9219 12.238-13.199 14.641-3.4414 2.3984-22.16 3.5195-40.719 2.3203-10.078-0.64062-15.602-1.3594-17.199-2.1602-1.2812-0.71875-5.0391-3.9219-8.2383-7.1992-5.6016-5.6016-5.8398-6-5.3594-8.8789 1.7617-10.719 5.2812-19.602 8.9609-22.48 3.9219-3.1992 14.961-2 58.398 6.2383 49.441 9.4414 56.16 9.6797 13.281 0.64062-42.801-9.0391-49.121-10.16-60.641-10.719-10.32-0.48047-10.48-0.39844-12.879 1.6016z"/>
  <path d="m526.8 349.2c-16.398 2.8789-73.68 14.961-73.199 15.441 0.48047 0.48047 15.762-2 38-6.3203 31.762-6 43.762-8 52.559-8.4805l8.1602-0.48047 2.3203 2.4805c3.9219 4.2383 7.1211 12.398 8.3984 22 0.39844 2.8008 0.16016 3.2812-5.2812 8.8789-3.1992 3.1992-6.8008 6.3984-8.1602 7.1211-3.1211 1.5195-28.48 3.2812-38.801 2.6406-18.078-1.1992-17.441-1.0391-22.238-5.6016-2.3984-2.2383-6.8008-7.4414-9.8398-11.52-3.0391-4-5.6797-7.3594-5.9219-7.3594-1.0391 0 9.3594 15.121 13.281 19.199 6.3984 6.7188 6.7188 6.8008 36.801 6.8008h25.359l4.5586-3.1211c2.4805-1.7617 6.4805-5.3594 8.8789-8 5.0391-5.6797 5.3594-7.5195 2.7188-17.602-1.8398-7.2812-4.9609-13.441-8.2383-16.16-2.0781-1.7617-2.9609-1.9219-10.398-1.8398-4.7188 0-12.719 0.87891-18.961 1.9219z"/>
  <path d="m267.92 368.8c-7.9219 1.1992-12.16 4-35.922 23.922-9.5195 8-14.32 11.121-21.199 13.762-5.0391 1.9219-4.8008 1.9219-44.559 0.71875-22.238-0.64062-33.84-0.48047-32.801 0.48047 0.71875 0.71875 22.719 2.6406 54.559 4.7188l17.52 1.1211 6.0781-2c3.2812-1.1211 7.6797-2.9609 9.7617-4.0781 3.7617-2.0781 5.1211-3.1211 26.719-20.719 6.5586-5.2812 13.121-10.32 14.559-11.039 3.4414-1.7617 11.922-2.6406 37.762-3.6797 11.68-0.48047 25.359-1.1992 30.398-1.6016 5.0391-0.48047 9.9219-0.80078 10.801-0.80078 1.3594 0 1.3594-0.16016 0.39844-0.80078-1.4414-0.87891-67.84-0.87891-74.078 0z"/>
  <path d="m352.4 368.8c-0.96094 0.64062-0.87891 0.80078 0.48047 0.80078 0.96094 0 6.3203 0.39844 12 0.80078 5.6797 0.48047 21.84 1.3594 36 2 18.48 0.80078 26.559 1.5195 29.121 2.3984 4 1.4414 6.5586 3.2812 25.199 18.719 14.078 11.68 20.32 15.602 29.281 18.32 5.1211 1.6016 5.7617 1.6016 22.801 0.48047 20.879-1.2812 45.922-3.3594 51.281-4.0781l3.8398-0.55859-3.1992-0.55859c-2.5586-0.48047-28.719-0.078125-64.398 1.0391-6 0.16016-13.68-2.0781-19.441-5.7617-2-1.2812-9.1211-6.8008-15.68-12.32-16.48-13.762-22.961-18.48-27.68-20.16-3.6016-1.3594-7.5195-1.5195-41.199-1.6797-24-0.16016-37.602 0-38.398 0.55859z"/>
  <path d="m116.08 409.76c-0.55859 2.2383 0.80078 26.16 2 33.84 1.4414 9.9219 1.3594 9.6797 5.7617 12.719l4.1602 2.8008 23.84 0.87891 23.922 0.80078 4.9609-3.9219 5.0391-4 0.55859-16.16c0.32031-8.8789 0.32031-16.398-0.078124-16.719-0.64063-0.64062-25.039-3.4414-38.641-4.5586-4.7188-0.32031-9.7617-1.5195-17.121-4-11.922-4-13.68-4.1602-14.398-1.6797zm9.0391 3.7617 7.3594 3.8398 0.39844 7.5195c0.55859 10.641 2.4805 22.879 4 25.121l1.2812 2h-4.4805c-6 0-9.1211-1.6016-9.6016-5.0391-2.3203-15.52-4.8008-29.762-5.6797-33.199-0.55859-2.2383-0.96094-4.1602-0.80078-4.1602 0.078125 0 3.5195 1.7617 7.5195 3.9219zm18.32 7.5195 4.9609 0.71875v4.5586c0.078124 7.1211 2.2383 21.68 3.6016 23.762l1.1992 1.9219h-6c-5.7617 0-6-0.078125-7.1992-2.3984-0.64062-1.2812-1.1992-3.6797-1.1992-5.3594 0-3.1992-1.9219-17.84-2.8789-22.559-0.55859-2.4805-0.39844-2.7188 0.96094-2.0781 0.80078 0.32031 3.7617 0.96094 6.5586 1.4414zm15.762 1.3594h3.3594l0.55859 9.3594c0.48047 9.6016 1.4414 16.32 2.4805 18.801 0.48047 1.2812 0 1.4414-4.6406 1.4414-4.8789 0-5.1992-0.078125-6-2.2383-0.39844-1.1992-1.3594-7.0391-2.0781-12.961-0.71875-5.9219-1.5195-11.84-1.8398-13.121-0.48047-2.2383-0.39844-2.3203 2.1602-1.8398 1.4414 0.32031 4.1602 0.55859 6 0.55859zm14.641 0.80078c3.8398 0 7.3594 0.32031 7.8398 0.64062 1.1211 0.71875-1.3594 23.52-2.7188 25.199-1.5195 1.8398-5.2812 3.1211-8.2383 2.8008-3.1992-0.32031-3.3594-0.87891-4.7188-14.641-0.48047-5.2812-1.1211-10.801-1.3594-12.32-0.39844-2.3203-0.23828-2.6406 0.87891-2.2383 0.80078 0.32031 4.5586 0.55859 8.3203 0.55859z"/>
  <path d="m565.2 411.52c-8.5586 2.9609-11.602 3.6016-21.199 4.3984-6.1602 0.55859-16.398 1.6016-22.801 2.3984l-11.602 1.2812 0.23828 16.398 0.32031 16.398 2.4805 2.1602c1.4414 1.1992 3.8398 3.1211 5.3594 4.2383l2.8789 2 23.84-0.80078 23.922-0.80078 3.8398-2.8789c2.1602-1.6016 4.0781-3.6016 4.3203-4.5586 1.9219-8.9609 4.3984-39.762 3.3594-42.48-0.80078-2-4-1.5195-14.961 2.2383zm13.281-0.64062c-0.80078 2.1602-4.4805 22.48-5.5195 30.641-0.87891 7.0391-1.0391 7.6016-3.3594 8.9609-1.6016 1.0391-3.9219 1.5195-6.8789 1.5195h-4.5586l1.4414-2.7188c1.4414-2.8789 2.9609-12.48 3.8398-24.801l0.55859-7.0391 6.8008-3.8398c7.6016-4.3203 8.3984-4.5586 7.6797-2.7188zm-18.559 13.199c-0.55859 2.7188-1.4414 8.9609-1.9219 13.84-0.48047 4.8789-1.2812 10.078-1.8398 11.441l-0.87891 2.6406h-6.3984c-6.0781 0-6.2383-0.078125-5.0391-1.4414 1.6016-1.7617 3.7617-14.879 3.7617-23.121v-5.6797l4.6406-0.55859c2.5586-0.23828 5.1992-0.87891 5.8398-1.2812 2.5586-1.6016 2.8789-0.80078 1.8398 4.1602zm-15.199 2.7188c-0.55859 2.8008-1.4414 8.9609-1.9219 13.602-1.0391 11.359-1.1992 11.602-7.6016 11.602-5.0391 0-6-0.48047-4.4805-2 0.96094-0.96094 2.4805-14.559 2.4805-21.922v-5.6016l4.6406-0.32031c2.4805-0.16016 5.3594-0.32031 6.2383-0.39844 1.6797-0.16016 1.6797-0.078124 0.64062 5.0391zm-13.199-1.4414c-0.32031 1.6797-1.0391 7.5195-1.5195 13.039-1.1211 12.641-1.5195 13.602-5.2812 13.602-4.1602 0-8.0781-2.6406-8.5586-5.8398-1.0391-6.1602-2.3203-20.559-1.9219-21.68 0.39844-0.96094 2.2383-1.2812 8.3203-1.5195 4.3203-0.078125 8.2383-0.32031 8.7188-0.39844 0.71875-0.078125 0.71875 0.71875 0.23828 2.8008z"/>
  <path d="m292.8 410.48-50.398 0.39844-14.16 3.3594c-7.8398 1.8398-16.398 3.4414-19.199 3.4414-4.3203 0.078124-10.641 1.0391-9.4414 1.4414 0.23828 0.078125 4 0.48047 8.3984 0.80078 6.9609 0.64062 9.6797 0.39844 21.199-1.5195l13.199-2.1602 52.398 0.64062c28.801 0.32031 76.879 0.32031 106.8-0.078124l54.398-0.64063 14 3.4414c12.48 2.9609 14.719 3.3594 19.762 2.8789 3.1992-0.32031 6-0.71875 6.2383-1.0391 0.32031-0.23828-2.3203-0.71875-5.7617-1.0391-4.2383-0.39844-10.641-2-19.84-4.9609l-13.602-4.3984-33.602-0.32031c-70.078-0.71875-81.359-0.71875-130.4-0.23828z"/>
  <use x="70" y="572" xlink:href="#y"/>
  <use x="72.9375" y="572" xlink:href="#c"/>
  <use x="74.90625" y="572" xlink:href="#a"/>
  <use x="77.621094" y="572" xlink:href="#i"/>
  <use x="80.320312" y="572" xlink:href="#b"/>
  <use x="82.234375" y="572" xlink:href="#a"/>
  <use x="84.945312" y="572" xlink:href="#h"/>
  <use x="89.203125" y="572" xlink:href="#g"/>
  <use x="92.0625" y="572" xlink:href="#f"/>
  <use x="96.0625" y="572" xlink:href="#e"/>
  <use x="97.554688" y="572" xlink:href="#x"/>
  <use x="100.601562" y="572" xlink:href="#w"/>
  <use x="103.484375" y="572" xlink:href="#v"/>
  <use x="107.601562" y="572" xlink:href="#u"/>
  <use x="112.015625" y="572" xlink:href="#t"/>
  <use x="115.996094" y="572" xlink:href="#s"/>
  <use x="70" y="576" xlink:href="#r"/>
  <use x="71.742188" y="576" xlink:href="#c"/>
  <use x="73.710938" y="576" xlink:href="#d"/>
  <use x="76.460938" y="576" xlink:href="#q"/>
  <use x="82.023438" y="576" xlink:href="#b"/>
  <use x="83.933594" y="576" xlink:href="#p"/>
  <use x="86.78125" y="576" xlink:href="#a"/>
  <use x="90.886719" y="576" xlink:href="#o"/>
  <use x="94.234375" y="576" xlink:href="#d"/>
  <use x="96.984375" y="576" xlink:href="#n"/>
  <use x="99.828125" y="576" xlink:href="#m"/>
  <use x="104.070312" y="576" xlink:href="#l"/>
  <use x="107" y="576" xlink:href="#c"/>
  <use x="108.976562" y="576" xlink:href="#d"/>
  <use x="111.722656" y="576" xlink:href="#k"/>
  <use x="113.09375" y="576" xlink:href="#a"/>
  <use x="115.804688" y="576" xlink:href="#j"/>
  <use x="118.179688" y="576" xlink:href="#b"/>
 </g>
</svg>
